<?xml version="1.0" standalone="no"?>
<!DOCTYPE svg PUBLIC "-//W3C//DTD SVG 20010904//EN"
 "http://www.w3.org/TR/2001/REC-SVG-20010904/DTD/svg10.dtd">
<svg version="1.0" xmlns="http://www.w3.org/2000/svg"
 width="260.000000pt" height="260.000000pt" viewBox="0 0 260.000000 260.000000"
 preserveAspectRatio="xMidYMid meet">
<metadata>
Created by potrace 1.11, written by Peter Selinger 2001-2013
</metadata>
<g transform="translate(0.000000,260.000000) scale(0.100000,-0.100000)"
fill="#000000" stroke="none">
<path d="M0 1300 l0 -1300 1300 0 1300 0 0 1300 0 1300 -1300 0 -1300 0 0
-1300z m574 528 c15 -51 31 -106 36 -123 4 -16 53 -181 108 -365 55 -184 104
-353 108 -375 3 -22 8 -35 10 -30 3 9 93 318 114 390 4 17 29 100 55 185 26
85 51 169 55 185 5 17 21 74 37 127 l28 98 148 0 c139 0 147 -1 147 -19 0 -11
-4 -22 -9 -25 -5 -3 -11 -18 -14 -33 -2 -16 -33 -107 -67 -203 -34 -96 -74
-213 -90 -260 -16 -47 -56 -164 -90 -260 -34 -96 -82 -239 -108 -317 l-47
-143 -165 0 -165 0 -32 98 c-24 73 -252 747 -253 747 -1 0 -140 409 -140 412
0 1 69 3 154 3 l153 0 27 -92z"/>
</g>
</svg>
